<?xml version="1.0" encoding="UTF-8"?>
<svg width="22px" height="22px" viewBox="0 0 22 22" version="1.1" xmlns="http://www.w3.org/2000/svg" xmlns:xlink="http://www.w3.org/1999/xlink">
    <title>icon/1on1</title>
    <defs>
        <filter id="filter-1">
            <feColorMatrix in="SourceGraphic" type="matrix" values="0 0 0 0 1.000000 0 0 0 0 1.000000 0 0 0 0 1.000000 0 0 0 1.000000 0"></feColorMatrix>
        </filter>
    </defs>
    <g id="Nativated" stroke="none" stroke-width="1" fill="none" fill-rule="evenodd" stroke-linejoin="round">
        <g id="nativated-475" transform="translate(-33.000000, -2814.000000)" fill="#FFFFFF">
            <g filter="url(#filter-1)" id="icon/1on1">
                <g transform="translate(34.000000, 2815.000000)">
                    <path d="M18.2608696,10.8695652 L18.2608696,13.4782609 C18.2608696,13.7008696 18.176087,13.9230435 18.006087,14.0930435 C17.836087,14.2630435 17.613913,14.3478261 17.3913043,14.3478261 L14.7826087,14.3478261" id="Stroke-1" stroke="#272D4F" stroke-width="1" fill="none"></path>
                    <path d="M1.73913043,7.39130435 L1.73913043,4.7826087 C1.73913043,4.56 1.82391304,4.33782609 1.99391304,4.16782609 C2.16391304,3.99782609 2.38608696,3.91304348 2.60869565,3.91304348 L5.2173913,3.91304348" id="Stroke-3" stroke="#272D4F" stroke-width="1" fill="none"></path>
                    <line x1="13.9130435" y1="14.3478261" x2="13.0434783" y2="14.3478261" id="Stroke-5" stroke="#272D4F" stroke-width="1.33333333" fill="none"></line>
                    <line x1="6.95652174" y1="3.91304348" x2="6.08695652" y2="3.91304348" id="Stroke-7" stroke="#272D4F" stroke-width="1.33333333" fill="none"></line>
                    <line x1="3.47826087" y1="14.3478261" x2="4.34782609" y2="14.3478261" id="Stroke-9" stroke="#272D4F" stroke-width="1.33333333" fill="none"></line>
                    <line x1="5.2173913" y1="14.3478261" x2="6.08695652" y2="14.3478261" id="Stroke-11" stroke="#272D4F" stroke-width="1.33333333" fill="none"></line>
                    <line x1="6.95652174" y1="14.3478261" x2="7.82608696" y2="14.3478261" id="Stroke-13" stroke="#272D4F" stroke-width="1.33333333" fill="none"></line>
                    <line x1="12.173913" y1="3.91304348" x2="13.0434783" y2="3.91304348" id="Stroke-15" stroke="#272D4F" stroke-width="1.33333333" fill="none"></line>
                    <line x1="13.9130435" y1="3.91304348" x2="14.7826087" y2="3.91304348" id="Stroke-17" stroke="#272D4F" stroke-width="1.33333333" fill="none"></line>
                    <line x1="15.6521739" y1="3.91304348" x2="16.5217391" y2="3.91304348" id="Stroke-19" stroke="#272D4F" stroke-width="1.33333333" fill="none"></line>
                    <path d="M19.1304348,-1.58983937e-13 L9.56521739,-1.58983937e-13 C9.08695652,-1.58983937e-13 8.69565217,0.391304348 8.69565217,0.869565217 L8.69565217,6.95652174 C8.69565217,7.43478261 9.08695652,7.82608696 9.56521739,7.82608696 L16.5217391,7.82608696 L18.2608696,9.56521739 L18.2608696,7.82608696 L19.1304348,7.82608696 C19.6086957,7.82608696 20,7.43478261 20,6.95652174 L20,0.869565217 C20,0.391304348 19.6086957,-1.58983937e-13 19.1304348,-1.58983937e-13 Z" id="Stroke-21" stroke="#272D4F" stroke-width="1" fill="none"></path>
                    <path d="M10.4347826,10.4347826 L0.869565217,10.4347826 C0.391304348,10.4347826 1.77635684e-14,10.826087 1.77635684e-14,11.3043478 L1.77635684e-14,17.3913043 C1.77635684e-14,17.8695652 0.391304348,18.2608696 0.869565217,18.2608696 L1.73913043,18.2608696 L1.73913043,20 L3.47826087,18.2608696 L10.4347826,18.2608696 C10.9130435,18.2608696 11.3043478,17.8695652 11.3043478,17.3913043 L11.3043478,11.3043478 C11.3043478,10.826087 10.9130435,10.4347826 10.4347826,10.4347826 Z" id="Stroke-23" stroke="#272D4F" stroke-width="1" fill="none"></path>
                </g>
            </g>
        </g>
    </g>
</svg>