<?xml version="1.0" encoding="UTF-8"?>
<svg width="20px" height="16px" viewBox="0 0 20 16" version="1.1" xmlns="http://www.w3.org/2000/svg" xmlns:xlink="http://www.w3.org/1999/xlink">
    <title>icon/books</title>
    <g id="icon/books" stroke="none" stroke-width="1" fill="none" fill-rule="evenodd">
        <path d="M18.2639021,0 C18.8161869,0 19.2639021,0.44771525 19.2639021,1 C19.2639021,1.13216628 19.237708,1.26257235 19.1873091,1.38382317 L19.1095891,1.53506747 L18.8602832,1.96487071 C18.3272201,2.88387094 18.3199716,4.01626786 18.8412263,4.94201682 L19.1606797,5.5093663 C19.4316492,5.99060841 19.2611896,6.60039642 18.7799475,6.87136593 C18.6301756,6.95569687 18.4611954,7 18.2893138,7 L17.2478804,7 L17.2478804,7 C17.2478804,7.1789112 17.1998816,7.35454611 17.1088891,7.50859021 L17,7.69293213 C16.3804151,8.74184723 16.3621639,10.040319 16.9520227,11.106234 L17.1786753,11.5158106 C17.4460858,11.9990394 17.2711304,12.6075527 16.7879016,12.8749632 C16.6396992,12.9569758 16.4730934,13 16.3037121,13 L12,13 L12,14.7904788 C12,15.3427635 11.5522847,15.7904788 11,15.7904788 C10.7571018,15.7904788 10.522507,15.7020707 10.3400213,15.5417631 L8.58496094,14 L6.64176526,15.6261229 C6.21821746,15.9805601 5.58753603,15.9245348 5.23309887,15.500987 C5.08251235,15.3210381 5,15.093866 5,14.8592218 L5,13 L2,13 C0.8954305,13 -7.10542736e-14,12.1045695 -7.10542736e-14,11 L-7.10542736e-14,8 C-7.10542736e-14,6.8954305 0.8954305,6 2,6 L2.26818814,6.0010775 C2.0976323,5.70666076 2,5.364732 2,5 L2,2 C2,0.8954305 2.8954305,0 4,0 L18.2639021,0 Z M11,10 L6,10 L6,14.8592218 L8.60076284,12.6828275 L11,14.7904788 L11,13 L11,13 L11,12 L11,12 L11,10 Z M15.5566807,9.99457886 L15.5,10 L15.5,10 L12,10 L12,12 L16.3037121,12 L16.0770595,11.5904234 C15.7992294,11.0883655 15.6259115,10.5463395 15.5566807,9.99457886 Z M16.1389913,7.18434192 L16.246,7 L2,7 C1.48716416,7 1.06449284,7.38604019 1.00672773,7.88337887 L1,8 L1,11 C1,11.5128358 1.38604019,11.9355072 1.88337887,11.9932723 L2,12 L5,12 L5,10 L3.5,10 C3.22385763,10 3,9.77614237 3,9.5 C3,9.22385763 3.22385763,9 3.5,9 L15.5,9 L15.5436805,9.00452267 C15.5983477,8.45153705 15.7569828,7.90683803 16.0191599,7.40071749 L16.1389913,7.18434192 Z M18.262,1 L4,1 C3.48716416,1 3.06449284,1.38604019 3.00672773,1.88337887 L3,2 L3,5 C3,5.51283584 3.38604019,5.93550716 3.88337887,5.99327227 L4,6 L18.2893138,6 L17.9698604,5.43265051 C17.7165896,4.98284135 17.556898,4.49644217 17.490612,4.00055634 L5.5,4 C5.22385763,4 5,3.77614237 5,3.5 C5,3.22385763 5.22385763,3 5.5,3 L17.4829278,3.00077956 C17.5370018,2.54268984 17.6705057,2.09195983 17.8833032,1.66988314 L17.9952695,1.46312237 L18.262,1 Z" id="Combined-Shape" fill="#272D4F"></path>
    </g>
</svg>