<?xml version="1.0" encoding="UTF-8"?>
<svg width="18px" height="14px" viewBox="0 0 18 14" version="1.1" xmlns="http://www.w3.org/2000/svg" xmlns:xlink="http://www.w3.org/1999/xlink">
    <title>icon/burger-x</title>
    <g id="icon/burger-x" stroke="none" stroke-width="1" fill="none" fill-rule="evenodd">
        <path d="M4.05025253,0.642893219 L8.99914575,5.592 L13.9497475,0.642893219 C14.3102314,0.282409257 14.8774625,0.254679722 15.2697537,0.559704612 L15.363961,0.642893219 C15.7544853,1.03341751 15.7544853,1.66658249 15.363961,2.05710678 L15.363961,2.05710678 L10.4141458,7.006 L15.363961,11.9566017 C15.7544853,12.347126 15.7544853,12.980291 15.363961,13.3708153 C14.9734367,13.7613396 14.3402718,13.7613396 13.9497475,13.3708153 L8.99914575,8.421 L4.05025253,13.3708153 C3.68976857,13.7312992 3.12253751,13.7590288 2.73024631,13.4540039 L2.63603897,13.3708153 C2.24551468,12.980291 2.24551468,12.347126 2.63603897,11.9566017 L2.63603897,11.9566017 L7.58514575,7.006 L2.63603897,2.05710678 C2.24551468,1.66658249 2.24551468,1.03341751 2.63603897,0.642893219 C3.02656326,0.252368927 3.65972824,0.252368927 4.05025253,0.642893219 Z" id="Combined-Shape" fill="#272D4F"></path>
    </g>
</svg>