<?xml version="1.0" encoding="UTF-8"?>
<svg width="18px" height="18px" viewBox="0 0 18 18" version="1.1" xmlns="http://www.w3.org/2000/svg" xmlns:xlink="http://www.w3.org/1999/xlink">
    <title>icon-calendar</title>
    <g id="Symbols" stroke="none" stroke-width="1" fill="none" fill-rule="evenodd">
        <g id="_icon/features---calendar" transform="translate(0.000000, -3.000000)" fill="#272D4F">
            <path d="M12.5,3 C13.3284271,3 14,3.67157288 14,4.5 L14,5 L16,5 C17.1045695,5 18,5.8954305 18,7 L18,19 C18,20.1045695 17.1045695,21 16,21 L2,21 C0.8954305,21 1.3527075e-16,20.1045695 0,19 L0,7 C-1.3527075e-16,5.8954305 0.8954305,5 2,5 L4,5 L4,4.5 C4,3.67157288 4.67157288,3 5.5,3 C6.32842712,3 7,3.67157288 7,4.5 L7,5 L11,5 L11,4.5 C11,3.67157288 11.6715729,3 12.5,3 Z M6,5 L5,5 L5,7 L5.5,7 C5.77614237,7 6,7.22385763 6,7.5 C6,7.77614237 5.77614237,8 5.5,8 L5,8 C4.44771525,8 4,7.55228475 4,7 L4,6 L2,6 C1.44771525,6 1,6.44771525 1,7 L1,19 C1,19.5522847 1.44771525,20 2,20 L16,20 C16.5522847,20 17,19.5522847 17,19 L17,7 C17,6.44771525 16.5522847,6 16,6 L14,6 C13.4477153,6 13,5.55228475 13,5 L12,5 L12,7 L12.5,7 C12.7761424,7 13,7.22385763 13,7.5 C13,7.77614237 12.7761424,8 12.5,8 L12,8 C11.4477153,8 11,7.55228475 11,7 L11,6 L7,6 C6.44771525,6 6,5.55228475 6,5 Z M7.5,15 C7.77614237,15 8,15.2238576 8,15.5 C8,15.7761424 7.77614237,16 7.5,16 C7.22385763,16 7,15.7761424 7,15.5 C7,15.2238576 7.22385763,15 7.5,15 Z M4.5,15 C4.77614237,15 5,15.2238576 5,15.5 C5,15.7761424 4.77614237,16 4.5,16 C4.22385763,16 4,15.7761424 4,15.5 C4,15.2238576 4.22385763,15 4.5,15 Z M10.5,15 C10.7761424,15 11,15.2238576 11,15.5 C11,15.7761424 10.7761424,16 10.5,16 C10.2238576,16 10,15.7761424 10,15.5 C10,15.2238576 10.2238576,15 10.5,15 Z M13.5,15 C13.7761424,15 14,15.2238576 14,15.5 C14,15.7761424 13.7761424,16 13.5,16 C13.2238576,16 13,15.7761424 13,15.5 C13,15.2238576 13.2238576,15 13.5,15 Z M4.5,11 C4.77614237,11 5,11.2238576 5,11.5 C5,11.7761424 4.77614237,12 4.5,12 C4.22385763,12 4,11.7761424 4,11.5 C4,11.2238576 4.22385763,11 4.5,11 Z M7.5,11 C7.77614237,11 8,11.2238576 8,11.5 C8,11.7761424 7.77614237,12 7.5,12 C7.22385763,12 7,11.7761424 7,11.5 C7,11.2238576 7.22385763,11 7.5,11 Z M10.5,11 C10.7761424,11 11,11.2238576 11,11.5 C11,11.7761424 10.7761424,12 10.5,12 C10.2238576,12 10,11.7761424 10,11.5 C10,11.2238576 10.2238576,11 10.5,11 Z M13.5,11 C13.7761424,11 14,11.2238576 14,11.5 C14,11.7761424 13.7761424,12 13.5,12 C13.2238576,12 13,11.7761424 13,11.5 C13,11.2238576 13.2238576,11 13.5,11 Z" id="icon-calendar"></path>
        </g>
    </g>
</svg>