<?xml version="1.0" encoding="UTF-8"?>
<svg width="20px" height="16px" viewBox="0 0 20 16" version="1.1" xmlns="http://www.w3.org/2000/svg" xmlns:xlink="http://www.w3.org/1999/xlink">
    <title>Shape</title>
    <g id="Nativated" stroke="none" stroke-width="1" fill="none" fill-rule="evenodd">
        <g id="nativated-1680" transform="translate(-830.000000, -3729.000000)" fill="#272D4F" fill-rule="nonzero">
            <path d="M848.242188,3729 L831.757812,3729 C830.789766,3729 830,3729.78891 830,3730.75781 L830,3742.47656 C830,3743.44219 830.78625,3744.23438 831.757812,3744.23438 L848.242188,3744.23438 C849.207813,3744.23438 850,3743.44812 850,3742.47656 L850,3730.75781 C850,3729.79219 849.21375,3729 848.242188,3729 Z M847.999453,3730.17188 L840.037266,3738.1341 L832.006211,3730.17188 L847.999453,3730.17188 Z M831.171875,3742.23391 L831.171875,3730.99488 L836.815586,3736.5902 L831.171875,3742.23391 Z M832.000508,3743.0625 L837.647773,3737.41523 L839.626562,3739.37703 C839.855625,3739.60414 840.225273,3739.6034 840.453398,3739.37523 L842.382812,3737.44582 L847.999492,3743.0625 L832.000508,3743.0625 Z M848.828125,3742.23387 L843.211445,3736.61719 L848.828125,3731.00047 L848.828125,3742.23387 Z" id="Shape"></path>
        </g>
    </g>
</svg>