<?xml version="1.0" encoding="UTF-8"?>
<svg width="16px" height="16px" viewBox="0 0 16 16" version="1.1" xmlns="http://www.w3.org/2000/svg" xmlns:xlink="http://www.w3.org/1999/xlink">
    <title>icon/login</title>
    <g id="Nativated" stroke="none" stroke-width="1" fill="none" fill-rule="evenodd">
        <g id="nativated-475" transform="translate(-79.000000, -513.000000)" fill="#FFFFFF" fill-rule="nonzero">
            <g id="login-register" transform="translate(78.000000, 500.000000)">
                <g id="icon/login" transform="translate(0.000000, 12.000000)">
                    <path d="M9.00339716,0.965324617 C11.8639681,0.965324617 13.8280424,2.95918494 13.8280424,5.61022949 C13.8280424,7.60211358 13.3512448,8.06522489 12.1495616,9.30705271 L11.477063,9.98263113 L11.3299323,10.1384359 L11.3299323,10.9907553 L15.3187565,12.5268702 C16.2794585,12.943777 16.9210479,13.8601982 16.9932047,14.8945439 L17,15.0897725 L17,15.2222182 C17,16.1549679 16.2819353,16.9199412 15.3686399,16.9941067 L15.2228892,17 C14.8169164,16.9824283 14.4931904,16.6475765 14.4931904,16.2375766 C14.4931904,15.8518531 14.7797153,15.5330763 15.1514621,15.4826254 L15.2228892,15.476187 C15.3430693,15.476187 15.4437453,15.3926481 15.4700572,15.2804509 L15.4767622,15.2222182 L15.4767622,15.0897725 C15.4767622,14.629826 15.2286414,14.2097751 14.8732434,14.0009393 L14.7635466,13.9447963 L10.31623,12.2499493 C10.0449308,12.1547422 9.85336793,11.9163899 9.81414778,11.6373455 L9.8067231,11.5309966 L9.8067231,9.85065862 C9.8067231,9.67032143 9.87066576,9.49583021 9.98717775,9.35822131 C10.1078809,9.21566232 10.2327209,9.07852581 10.3758531,8.92978436 L10.899231,8.40508619 C11.9654275,7.34516616 12.3048045,7.24585955 12.3048045,5.61022949 C12.3048045,3.7427653 10.9506703,2.48913763 9.00339716,2.48913763 C7.0554132,2.48913763 5.70410727,3.74050936 5.70410727,5.61022949 C5.70410727,7.17312245 6.00570334,7.28164131 6.93723442,8.23747497 L7.48294901,8.77929168 L7.76912907,9.07574753 C7.8573408,9.17063899 7.93969191,9.26320012 8.02014535,9.35822131 C8.11335494,9.46830843 8.17292017,9.60200023 8.19301787,9.74340611 L8.2006,9.85065862 L8.2006,11.5309966 C8.2006,11.8185944 8.03920217,12.0783124 7.78899569,12.2077136 L7.69114713,12.2499304 L3.28730526,13.9247077 C2.86557482,14.1077798 2.57916631,14.5026294 2.53057741,14.9529884 L2.52323783,15.0896051 L2.52323783,15.2222182 C2.52323783,15.3424437 2.60674519,15.4431577 2.71890006,15.4694795 L2.7771108,15.476187 L11.4269098,15.476187 C11.8475403,15.476187 12.1885287,15.8173042 12.1885287,16.2380935 C12.1885287,16.6588828 11.8475403,17 11.4269098,17 L2.7771108,17 C1.84471317,17 1.08002854,16.2816641 1.00589107,15.3680239 L1,15.2222182 L1,15.0896051 C1,14.0421194 1.58495618,13.0886782 2.5471745,12.5941021 L2.73196077,12.5068355 L6.6769485,10.9907553 L6.6769485,10.1394518 L6.5327147,9.98600406 L6.40375254,9.8546806 L5.85256525,9.30714538 C4.71248072,8.13641494 4.22770839,7.71455572 4.18412483,5.8902086 L4.18086944,5.61022949 C4.18086944,2.95711157 6.14182849,0.965324617 9.00339716,0.965324617 Z" id="Path"></path>
                </g>
            </g>
        </g>
    </g>
</svg>