<?xml version="1.0" encoding="UTF-8"?>
<svg width="161px" height="61px" viewBox="0 0 161 61" version="1.1" xmlns="http://www.w3.org/2000/svg" xmlns:xlink="http://www.w3.org/1999/xlink">
    <title>nativated-logo</title>
    <g id="Nativated" stroke="none" stroke-width="1" fill="none" fill-rule="evenodd">
        <g id="nativated-475" transform="translate(-108.000000, -90.000000)">
            <g id="nativated-logo" transform="translate(108.000000, 90.000000)">
                <path d="M15.9399437,60.0637823 L15.9899906,60.0137354 C15.9399437,59.1128908 15.8648733,57.8116709 15.8648733,55.2092312 L15.8648733,45.7753869 C15.8648733,42.3721964 16.7406944,42.0969384 17.7666562,41.9718211 L17.7666562,41.8467038 L13.5126681,41.8467038 L13.5126681,41.9718211 C14.53863,42.0969384 15.414451,42.8726656 15.414451,46.2758561 L15.414451,53.6077297 L6.15577104,42.7225249 C5.90553644,42.2470791 5.63027839,42.0719149 5.50516109,41.8467038 L-1.82076576e-15,41.8467038 C0.800750704,42.2470791 1.42633719,42.8226187 2.27713481,43.8235571 L2.27713481,55.4344423 C2.27713481,58.8376328 1.40131373,59.1128908 0.375351892,59.2380081 L0.375351892,59.3631254 L4.67938693,59.3631254 L4.67938693,59.2380081 C3.65342509,59.1128908 2.777604,58.3371636 2.777604,54.9339731 L2.777604,44.4241201 L15.9399437,60.0637823 Z M23.2467939,59.3631254 L23.2467939,59.2630316 C21.8454801,58.9627501 20.8445418,58.5123278 21.7704098,56.3603103 L22.3209259,55.1091373 L31.7547701,55.1091373 L32.2552393,56.3603103 C33.1310604,58.5623747 32.130122,59.1128908 30.3784798,59.2630316 L30.3784798,59.3631254 L38.7863622,59.3631254 L38.7863622,59.2630316 C37.6603065,59.1128908 37.2098843,58.5123278 36.3090397,56.2101695 L31.0290898,42.8726656 C30.5035971,41.5714457 30.4285267,41.2211173 30.4285267,41.096 L27.1254301,42.6975014 L26.5999374,42.9727595 L26.6499844,43.8235571 L21.2198937,56.3352868 C20.2940256,58.4873043 19.6934626,58.9627501 18.6424773,59.2630316 L18.6424773,59.3631254 L23.2467939,59.3631254 Z M31.5796059,54.658715 L22.4960901,54.658715 L27.2255239,43.7735102 L31.5796059,54.658715 Z M52.499218,59.3631254 L52.499218,59.2380081 C50.972787,59.1128908 50.0969659,58.8376328 50.0969659,57.6865536 L50.0969659,42.2220557 L50.5473882,42.2220557 C53.4751329,42.2220557 55.6271505,43.5983459 55.3018455,47.0015364 L55.4019393,47.0015364 L57.0034407,41.8467038 L40.3628402,41.8467038 L39.537066,47.0015364 L39.6371598,47.0015364 C41.0384736,43.7484867 42.6900219,42.347173 46.1682828,42.2220557 L46.1682828,57.6865536 C46.1682828,58.8376328 45.2924617,59.1128908 43.7660307,59.2380081 L43.7660307,59.3631254 L52.499218,59.3631254 Z M66.1684846,59.3631254 L66.1684846,59.2380081 C65.1425227,59.1128908 64.2667016,58.8376328 64.2667016,57.9367882 L64.2667016,43.273041 C64.2667016,42.3721964 65.1425227,42.0969384 66.1684846,41.9718211 L66.1684846,41.8467038 L58.4362356,41.8467038 L58.4362356,41.9718211 C59.4621974,42.0969384 60.3380185,42.3721964 60.3380185,43.273041 L60.3380185,57.9367882 C60.3380185,58.8376328 59.4621974,59.1128908 58.4362356,59.2380081 L58.4362356,59.3631254 L66.1684846,59.3631254 Z M76.3409245,60.4141107 L79.093505,58.5123278 L84.974018,44.8745424 C85.899886,42.7225249 86.500449,42.2470791 87.5514343,41.9467976 L87.5514343,41.8467038 L82.9471178,41.8467038 L82.9471178,41.9467976 C84.3484315,42.2470791 85.3493699,42.6975014 84.4235019,44.8495189 L79.1935988,56.9608733 L74.3640712,44.8495189 C73.4882501,42.6474545 74.464165,42.0969384 76.2158072,41.9467976 L76.2158072,41.8467038 L68.6587224,41.8467038 C69.0340743,42.1720088 69.5345435,42.9227125 69.8848719,43.7735102 L76.4159948,59.8886181 L76.3409245,60.4141107 Z M90.7350641,59.3631254 L90.7350641,59.2630316 C89.3337504,58.9627501 88.332812,58.5123278 89.25868,56.3603103 L89.8091961,55.1091373 L99.2430404,55.1091373 L99.7435095,56.3603103 C100.619331,58.5623747 99.6183922,59.1128908 97.8667501,59.2630316 L97.8667501,59.3631254 L106.274632,59.3631254 L106.274632,59.2630316 C105.148577,59.1128908 104.698155,58.5123278 103.79731,56.2101695 L98.51736,42.8726656 C97.9918674,41.5714457 97.916797,41.2211173 97.916797,41.096 L94.6137003,42.6975014 L94.0882077,42.9727595 L94.1382546,43.8235571 L88.7081639,56.3352868 C87.7822959,58.4873043 87.1817329,58.9627501 86.1307476,59.2630316 L86.1307476,59.3631254 L90.7350641,59.3631254 Z M99.0678761,54.658715 L89.9843603,54.658715 L94.7137942,43.7735102 L99.0678761,54.658715 Z M119.987488,59.3631254 L119.987488,59.2380081 C118.461057,59.1128908 117.585236,58.8376328 117.585236,57.6865536 L117.585236,42.2220557 L118.035658,42.2220557 C120.963403,42.2220557 123.115421,43.5983459 122.790116,47.0015364 L122.89021,47.0015364 L124.491711,41.8467038 L107.85111,41.8467038 L107.025336,47.0015364 L107.12543,47.0015364 C108.526744,43.7484867 110.178292,42.347173 113.656553,42.2220557 L113.656553,57.6865536 C113.656553,58.8376328 112.780732,59.1128908 111.254301,59.2380081 L111.254301,59.3631254 L119.987488,59.3631254 Z M139.430716,59.9136415 L139.580857,59.3631254 L140.957147,53.8329409 L140.857053,53.782894 C138.755083,57.3862721 136.92837,58.9627501 133.450109,58.9627501 L130.947764,58.9627501 L130.947764,50.8051023 L132.248983,50.8051023 C135.602127,50.8051023 137.028464,51.4807357 137.629027,54.0081051 L137.629027,47.1767007 C137.028464,49.7290935 135.602127,50.4047269 132.248983,50.4047269 L130.947764,50.4047269 L130.947764,42.2470791 L133.500156,42.2470791 C136.978417,42.2470791 137.929309,43.4982521 139.956209,46.5511142 L140.056303,46.5010673 L139.080388,41.8467038 L125.117297,41.8467038 L125.117297,41.9718211 C126.143259,42.0969384 127.01908,42.3721964 127.01908,43.273041 L127.01908,57.436319 C127.01908,58.3371636 126.143259,58.8626562 125.117297,59.2380081 L125.117297,59.3631254 L138.579919,59.3631254 L139.430716,59.9136415 Z M149.340006,59.3631254 C155.570848,59.3631254 160,56.0850522 160,50.1544923 C160,44.8995658 156.571786,41.8467038 149.840475,41.8467038 L141.707851,41.8467038 L141.707851,41.9718211 C142.733813,42.0969384 143.609634,42.3721964 143.609634,43.273041 L143.609634,57.436319 C143.609634,58.3371636 142.733813,58.8626562 141.707851,59.2380081 L141.707851,59.3631254 L149.340006,59.3631254 Z M150.991555,58.8876797 C149.740382,58.8876797 148.539256,58.6374451 147.538317,58.2370698 L147.538317,42.2470791 L148.839537,42.2470791 C153.644041,42.2470791 155.871129,45.9505511 155.871129,51.605853 C155.871129,57.1860845 153.894276,58.8876797 150.991555,58.8876797 Z" id="NATIVATED" fill="#272D4F" fill-rule="evenodd"></path>
                <path d="M95.2,28 L95.2,16.8 C95.2,16.2008876 95.1653384,15.6098709 95.0979111,15.0288458 L95.8318144,15.1821212 C93.5324045,14.6876614 91.1883348,14.3090709 88.7995161,14.0463929 L88.8,28 L87.2,28 L87.2001119,13.8884269 C85.2301047,13.7157328 83.2301514,13.6205797 81.2002033,13.6029912 L81.2,28 L79.6,28 L79.5992402,13.6048 L79.5689737,13.6054864 C77.3364504,13.6315187 75.0799666,13.750192 72.7994898,13.961544 L72.8,28 L71.2,28 L71.1999663,14.1245473 C69.1962649,14.3471409 67.1742159,14.6405916 65.1337976,15.0049244 L64.8998545,15.0482075 C64.8439453,15.535425 64.8110729,16.0296481 64.802354,16.5297601 L64.8,16.8 L64.8,28 L0.00244020184,28 L0.00244020184,26.4 L63.1992402,26.4 L63.2,16.8 C63.2,7.65550341 70.5061083,0.217439864 79.5994531,0.00468125113 L79.6,0 L81.2,0 L81.1997874,0.0421818583 C89.8261509,0.65087798 96.6544499,7.77227116 96.7977036,16.5193805 L96.8,16.8 L96.7992402,26.4 L160.004871,26.4 L160.004871,28 L95.2,28 Z M68,20 C68.4418278,20 68.8,20.3581722 68.8,20.8 L68.8,25.6 L67.2,25.6 L67.2,20.8 C67.2,20.3581722 67.5581722,20 68,20 Z M92,20 C92.4418278,20 92.8,20.3581722 92.8,20.8 L92.8,25.6 L91.2,25.6 L91.2,20.8 C91.2,20.3581722 91.5581722,20 92,20 Z M76,18.4 C76.4418278,18.4 76.8,18.7581722 76.8,19.2 L76.8,24 L75.2,24 L75.2,19.2 C75.2,18.7581722 75.5581722,18.4 76,18.4 Z M84,18.4 C84.4418278,18.4 84.8,18.7581722 84.8,19.2 L84.8,24 L83.2,24 L83.2,19.2 C83.2,18.7581722 83.5581722,18.4 84,18.4 Z M73.2167238,3.19363154 L73.1507978,3.22693174 C69.1815953,5.23381299 66.2121321,8.93055628 65.1883058,13.371264 C67.2097203,13.0167998 69.2133639,12.7316326 71.1999191,12.5148851 L71.2,8.8 C71.2,6.66962395 71.957017,4.71605871 73.2167238,3.19363154 Z M86.7819915,3.19315844 L86.8090909,3.22497633 C88.0079517,4.68748628 88.7448883,6.54320775 88.7970341,8.56927402 L88.8,8.8 L88.8001134,12.4370239 C90.8326721,12.6556407 92.8343129,12.9562891 94.8049847,13.3389941 C93.7679441,8.88800847 90.7754217,5.18744638 86.7819915,3.19315844 Z M72.8030697,8.5877102 L72.8,8.8 L72.799918,12.3547723 C75.0895221,12.1464373 77.3562074,12.0298449 79.5999432,12.0050314 L79.5993091,1.61096122 C75.879287,1.81501517 72.9115007,4.84297138 72.8030697,8.5877102 Z M81.1997964,1.69951597 L81.1992402,12.004 L81.4105475,12.0049922 C83.3670182,12.0266954 85.2968607,12.1191634 87.2000339,12.2824161 L87.2000339,8.8 C87.2000339,5.30514286 84.709984,2.39186013 81.4072597,1.73745958 L81.1997964,1.69951597 Z" id="Shape" fill="#CBAE6E" fill-rule="nonzero"></path>
            </g>
        </g>
    </g>
</svg>