<?xml version="1.0" encoding="UTF-8"?>
<svg width="20px" height="20px" viewBox="0 0 20 20" version="1.1" xmlns="http://www.w3.org/2000/svg" xmlns:xlink="http://www.w3.org/1999/xlink">
    <title>icon/news</title>
    <g id="Nativated" stroke="none" stroke-width="1" fill="none" fill-rule="evenodd">
        <g id="nativated-640" transform="translate(-30.000000, -15.000000)" fill="#A8ABB8">
            <g id="ticker">
                <g id="icon/news" transform="translate(30.000000, 15.000000)">
                    <path d="M12.7083333,0 C13.9725,0 15,1.0275 15,2.29166667 L15,2.5 L17.7083333,2.5 C18.9725,2.5 20,3.5275 20,4.79166667 L20,16.875 C20,18.4716667 18.7966667,19.7916667 17.2491667,19.9775 C17.1966667,19.9925 17.1408333,20 17.0833333,20 L3.125,20 C1.40166667,20 0,18.5983333 0,16.875 L0,2.29166667 C0,1.0275 1.0275,0 2.29166667,0 L12.7083333,0 Z M17.7083333,3.75 L15,3.75 L15,16.875 C15,17.9091667 15.8408333,18.75 16.875,18.75 C17.9091667,18.75 18.75,17.9091667 18.75,16.875 L18.75,4.79166667 C18.75,4.2175 18.2825,3.75 17.7083333,3.75 Z M12.7083333,1.25 L2.29166667,1.25 C1.7175,1.25 1.25,1.7175 1.25,2.29166667 L1.25,16.875 C1.25,17.9091667 2.09083333,18.75 3.125,18.75 L14.3766667,18.75 C13.9833333,18.2275 13.75,17.5775 13.75,16.875 L13.75,2.29166667 C13.75,1.7175 13.2825,1.25 12.7083333,1.25 Z M11.875,15.4166667 C12.22,15.4166667 12.5,15.6966667 12.5,16.0416667 C12.5,16.3866667 12.22,16.6666667 11.875,16.6666667 L3.125,16.6666667 C2.78,16.6666667 2.5,16.3866667 2.5,16.0416667 C2.5,15.6966667 2.78,15.4166667 3.125,15.4166667 L11.875,15.4166667 Z M11.875,12.2916667 C12.22,12.2916667 12.5,12.5716667 12.5,12.9166667 C12.5,13.2616667 12.22,13.5416667 11.875,13.5416667 L3.125,13.5416667 C2.78,13.5416667 2.5,13.2616667 2.5,12.9166667 C2.5,12.5716667 2.78,12.2916667 3.125,12.2916667 L11.875,12.2916667 Z M11.875,9.16666667 C12.22,9.16666667 12.5,9.44666667 12.5,9.79166667 C12.5,10.1366667 12.22,10.4166667 11.875,10.4166667 L3.125,10.4166667 C2.78,10.4166667 2.5,10.1366667 2.5,9.79166667 C2.5,9.44666667 2.78,9.16666667 3.125,9.16666667 L11.875,9.16666667 Z M6.875,2.5 C7.22,2.5 7.5,2.78 7.5,3.125 L7.5,6.875 C7.5,7.22 7.22,7.5 6.875,7.5 L3.125,7.5 C2.78,7.5 2.5,7.22 2.5,6.875 L2.5,3.125 C2.5,2.78 2.78,2.5 3.125,2.5 L6.875,2.5 Z M11.875,5.83333333 C12.22,5.83333333 12.5,6.11333333 12.5,6.45833333 C12.5,6.80333333 12.22,7.08333333 11.875,7.08333333 L9.79166667,7.08333333 C9.44666667,7.08333333 9.16666667,6.80333333 9.16666667,6.45833333 C9.16666667,6.11333333 9.44666667,5.83333333 9.79166667,5.83333333 L11.875,5.83333333 Z M6.25,3.75 L3.75,3.75 L3.75,6.25 L6.25,6.25 L6.25,3.75 Z M11.875,3.33333333 C12.22,3.33333333 12.5,3.61333333 12.5,3.95833333 C12.5,4.30333333 12.22,4.58333333 11.875,4.58333333 L9.79166667,4.58333333 C9.44666667,4.58333333 9.16666667,4.30333333 9.16666667,3.95833333 C9.16666667,3.61333333 9.44666667,3.33333333 9.79166667,3.33333333 L11.875,3.33333333 Z" id="Combined-Shape"></path>
                </g>
            </g>
        </g>
    </g>
</svg>