<?xml version="1.0" encoding="UTF-8"?>
<svg width="310px" height="80px" viewBox="0 0 310 80" version="1.1" xmlns="http://www.w3.org/2000/svg" xmlns:xlink="http://www.w3.org/1999/xlink">
    <title>Rectangle</title>
    <defs>
        <path d="M375,358 L375,4319 L0,4319 L0,358 L144,358 L144,358 C144,382.300529 163.699471,402 188,402 C212.300529,402 232,382.300529 232,358 L375,358 Z" id="path-1"></path>
        <filter x="-16.0%" y="-1.5%" width="132.0%" height="103.0%" filterUnits="objectBoundingBox" id="filter-2">
            <feOffset dx="0" dy="0" in="SourceAlpha" result="shadowOffsetOuter1"></feOffset>
            <feGaussianBlur stdDeviation="20" in="shadowOffsetOuter1" result="shadowBlurOuter1"></feGaussianBlur>
            <feColorMatrix values="0 0 0 0 0   0 0 0 0 0   0 0 0 0 0  0 0 0 0.1 0" type="matrix" in="shadowBlurOuter1"></feColorMatrix>
        </filter>
        <path d="M36,2853 L338,2853 C340.209139,2853 342,2854.79086 342,2857 L342,3148.69996 C342,3150.61603 340.641246,3152.26298 338.760088,3152.62708 L187,3182 L187,3182 L35.2399124,3152.62708 C33.3587542,3152.26298 32,3150.61603 32,3148.69996 L32,2857 C32,2854.79086 33.790861,2853 36,2853 Z" id="path-3"></path>
        <filter x="-19.4%" y="-18.2%" width="138.7%" height="136.5%" filterUnits="objectBoundingBox" id="filter-4">
            <feOffset dx="0" dy="0" in="SourceAlpha" result="shadowOffsetOuter1"></feOffset>
            <feGaussianBlur stdDeviation="20" in="shadowOffsetOuter1" result="shadowBlurOuter1"></feGaussianBlur>
            <feColorMatrix values="0 0 0 0 0   0 0 0 0 0   0 0 0 0 0  0 0 0 0.1 0" type="matrix" in="shadowBlurOuter1"></feColorMatrix>
        </filter>
    </defs>
    <g id="Nativated" stroke="none" stroke-width="1" fill="none" fill-rule="evenodd">
        <g id="nativated-375" transform="translate(-32.000000, -3149.000000)">
            <g id="box-white">
                <use fill="black" fill-opacity="1" filter="url(#filter-2)" xlink:href="#path-1"></use>
                <use fill="#FFFFFF" fill-rule="evenodd" xlink:href="#path-1"></use>
            </g>
            <polygon id="Rectangle" fill="#E2EAE3" fill-rule="nonzero" points="0 2770 375 2770 375 3644 0 3644"></polygon>
            <g id="Rectangle">
                <use fill="black" fill-opacity="1" filter="url(#filter-4)" xlink:href="#path-3"></use>
                <use fill="#FFFFFF" fill-rule="evenodd" xlink:href="#path-3"></use>
            </g>
            <rect id="Rectangle" stroke="#979797" fill="#D8D8D8" opacity="0" x="32" y="3149" width="310" height="80"></rect>
        </g>
    </g>
</svg>