<?xml version="1.0" encoding="UTF-8"?>
<svg width="232px" height="80px" viewBox="0 0 232 80" version="1.1" xmlns="http://www.w3.org/2000/svg" xmlns:xlink="http://www.w3.org/1999/xlink">
    <title>Rectangle</title>
    <defs>
        <path d="M650,480 L650,4535 L0,4535 L0,480 L281,480 L281,480 C281,504.302308 300.699471,524.003222 325,524.003222 C349.300529,524.003222 369,504.302308 369,480 L650,480 Z" id="path-1"></path>
        <filter x="-9.2%" y="-1.5%" width="118.5%" height="103.0%" filterUnits="objectBoundingBox" id="filter-2">
            <feOffset dx="0" dy="0" in="SourceAlpha" result="shadowOffsetOuter1"></feOffset>
            <feGaussianBlur stdDeviation="20" in="shadowOffsetOuter1" result="shadowBlurOuter1"></feGaussianBlur>
            <feColorMatrix values="0 0 0 0 0   0 0 0 0 0   0 0 0 0 0  0 0 0 0.1 0" type="matrix" in="shadowBlurOuter1"></feColorMatrix>
        </filter>
        <path d="M4,0 L227,0 C229.209139,-4.05812251e-16 231,1.790861 231,4 L231,595.468603 C231,597.1732 229.919741,598.690522 228.309004,599.248353 L115.5,638.316406 L115.5,638.316406 L2.69099577,599.248353 C1.08025855,598.690522 3.57358897e-14,597.1732 0,595.468603 L0,4 C-2.705415e-16,1.790861 1.790861,4.05812251e-16 4,0 Z" id="path-3"></path>
        <filter x="-26.0%" y="-9.4%" width="151.9%" height="118.8%" filterUnits="objectBoundingBox" id="filter-4">
            <feOffset dx="0" dy="0" in="SourceAlpha" result="shadowOffsetOuter1"></feOffset>
            <feGaussianBlur stdDeviation="20" in="shadowOffsetOuter1" result="shadowBlurOuter1"></feGaussianBlur>
            <feColorMatrix values="0 0 0 0 0   0 0 0 0 0   0 0 0 0 0  0 0 0 0.1 0" type="matrix" in="shadowBlurOuter1"></feColorMatrix>
        </filter>
    </defs>
    <g id="Nativated" stroke="none" stroke-width="1" fill="none" fill-rule="evenodd">
        <g id="nativated-640" transform="translate(-378.000000, -3615.000000)">
            <g id="box-white">
                <use fill="black" fill-opacity="1" filter="url(#filter-2)" xlink:href="#path-1"></use>
                <use fill="#FFFFFF" fill-rule="evenodd" xlink:href="#path-1"></use>
            </g>
            <g id="Group-5" transform="translate(378.000000, 3018.000000)">
                <g id="Rectangle">
                    <use fill="black" fill-opacity="1" filter="url(#filter-4)" xlink:href="#path-3"></use>
                    <use fill="#FFFFFF" fill-rule="evenodd" xlink:href="#path-3"></use>
                </g>
            </g>
            <rect id="Rectangle" stroke="#979797" fill="#D8D8D8" opacity="0" x="378" y="3615" width="232" height="42"></rect>
        </g>
    </g>
</svg>