<?xml version="1.0" encoding="UTF-8"?>
<svg width="17px" height="18px" viewBox="0 0 17 18" version="1.1" xmlns="http://www.w3.org/2000/svg" xmlns:xlink="http://www.w3.org/1999/xlink">
    <title>icon/register</title>
    <g id="Nativated" stroke="none" stroke-width="1" fill="none" fill-rule="evenodd">
        <g id="nativated-1680" transform="translate(-1369.000000, -16.000000)" fill="#272D4F">
            <g id="login-register" transform="translate(1259.000000, 0.000000)">
                <g id="icon/register" transform="translate(110.000000, 16.000000)">
                    <path d="M0.75,16.5 C1.16421356,16.5 1.5,16.8357864 1.5,17.25 C1.5,17.6642136 1.16421356,18 0.75,18 C0.335786438,18 5.07265313e-17,17.6642136 0,17.25 C-5.07265313e-17,16.8357864 0.335786438,16.5 0.75,16.5 Z M6.75,16.5 C7.16421356,16.5 7.5,16.8357864 7.5,17.25 C7.5,17.6642136 7.16421356,18 6.75,18 C6.33578644,18 6,17.6642136 6,17.25 C6,16.8357864 6.33578644,16.5 6.75,16.5 Z M12.75,16.5 C13.1642136,16.5 13.5,16.8357864 13.5,17.25 C13.5,17.6642136 13.1642136,18 12.75,18 C12.3357864,18 12,17.6642136 12,17.25 C12,16.8357864 12.3357864,16.5 12.75,16.5 Z M3.75,16.5 C4.16421356,16.5 4.5,16.8357864 4.5,17.25 C4.5,17.6642136 4.16421356,18 3.75,18 C3.33578644,18 3,17.6642136 3,17.25 C3,16.8357864 3.33578644,16.5 3.75,16.5 Z M9.75,16.5 C10.1642136,16.5 10.5,16.8357864 10.5,17.25 C10.5,17.6642136 10.1642136,18 9.75,18 C9.33578644,18 9,17.6642136 9,17.25 C9,16.8357864 9.33578644,16.5 9.75,16.5 Z M15.75,16.5 C16.1642136,16.5 16.5,16.8357864 16.5,17.25 C16.5,17.6642136 16.1642136,18 15.75,18 C15.3357864,18 15,17.6642136 15,17.25 C15,16.8357864 15.3357864,16.5 15.75,16.5 Z M3.23680534,11.0728934 L5.98550288,13.6998438 L3.32134745,15.1194402 C3.03195561,15.2736428 2.68690794,15.2784398 2.39342196,15.1323407 C1.92378138,14.8985508 1.71098605,14.3488679 1.88260645,13.8626123 L1.92909317,13.7516981 L3.23680534,11.0728934 Z M15.2051986,0.423441044 L15.3432539,0.540185972 L16.4046227,1.52312722 C17.1586808,2.28745754 17.1961881,3.49948608 16.5187275,4.30836995 L16.3991976,4.43930521 L7.51405592,13.450449 L3.54475688,9.70753716 L12.5241745,0.601250698 C13.2539676,-0.132969775 14.4017508,-0.197743962 15.2051986,0.423441044 Z M13.6825808,1.63277686 L13.6050885,1.6968543 L5.75,9.67041016 L7.47957208,11.301494 L15.3183011,3.34368408 C15.4958447,3.16506908 15.5160516,2.88732324 15.3785948,2.68614792 L15.3111584,2.60622342 L14.3098583,1.68158812 C14.1337594,1.51900568 13.874148,1.50382956 13.6825808,1.63277686 Z" id="Combined-Shape"></path>
                </g>
            </g>
        </g>
    </g>
</svg>